# xmcd CD database file
#
# Track frame offsets:
#	150
#	20201
#	34661
#	52119
#	69030
#
# Disc length: 1298 seconds
#
# Revision: 0
# Processed by: cddbd v1.5.1PL0 Copyright (c) Steve Scherf et al.
# Submitted via: CDex 1.51
#
DISCID=3d051005
DTITLE=Makin Waves - Made in the U.S.A.
DYEAR=2003
DGENRE=Blues
TTITLE0=Things You do
TTITLE1=Can't Stay Long
TTITLE2=Smoken
TTITLE3=Color Blind
TTITLE4=Steppin' Stone
EXTD=YEAR: 2003
EXTT0=
EXTT1=
EXTT2=
EXTT3=
EXTT4=
PLAYORDER=
